<svg width="42" height="44" viewBox="0 0 42 44" fill="none" xmlns="http://www.w3.org/2000/svg">
<path fill-rule="evenodd" clip-rule="evenodd" d="M40.3061 19.4439C41.0942 18.2795 41.2993 16.8156 40.866 15.4783C40.4309 14.141 39.4039 13.0783 38.0826 12.5969C36.3513 11.9568 35.1762 10.3342 35.1067 8.48876C35.055 7.08728 34.3632 5.78919 33.2291 4.96364C32.0933 4.13986 30.6437 3.8831 29.2957 4.26648C27.5251 4.7711 25.6244 4.16306 24.4759 2.72414C23.6094 1.62041 22.2863 0.974976 20.8831 0.974976C19.4798 0.974976 18.1568 1.62046 17.2902 2.72414C16.1473 4.17199 14.2465 4.7889 12.4704 4.28967C11.1224 3.90631 9.67281 4.16307 8.537 4.98682C7.40296 5.8106 6.71115 7.11042 6.65943 8.51195C6.58989 10.3574 5.41484 11.9782 3.68352 12.6201C2.36229 13.0998 1.33525 14.1624 0.900152 15.5015C0.466869 16.8388 0.671921 18.3027 1.46005 19.467C2.48353 21.0005 2.48353 22.9993 1.46005 24.5347C0.671921 25.699 0.466878 27.1629 0.900152 28.5002C1.33522 29.8375 2.36225 30.9002 3.68352 31.3816C5.41489 32.0217 6.58991 33.6443 6.65943 35.4898C6.71114 36.8895 7.40296 38.1894 8.537 39.0131C9.67281 39.8387 11.1224 40.0954 12.4704 39.7121C14.2463 39.211 16.1471 39.8297 17.2902 41.2776C18.1568 42.3813 19.4798 43.025 20.8831 43.025C22.2863 43.025 23.6094 42.3813 24.4759 41.2776C25.6189 39.8297 27.5196 39.211 29.2957 39.7121C30.6526 40.0972 32.1094 39.8333 33.2452 38.9988C34.381 38.1644 35.0692 36.8521 35.1067 35.4434C35.1762 33.5979 36.3513 31.9771 38.0826 31.3352C39.4038 30.8556 40.4308 29.7929 40.8659 28.4538C41.2992 27.1165 41.0942 25.6527 40.306 24.4883C39.2933 22.9602 39.2933 20.9738 40.3061 19.4439ZM31.1768 32.28C27.9709 35.4842 23.4562 37.0158 18.9628 36.4221C14.4677 35.8301 10.5059 33.1805 8.24144 29.2542C5.97519 25.3279 5.66672 20.571 7.40164 16.3843C9.13834 12.1959 12.724 9.05577 17.1033 7.88449C21.4826 6.71321 26.1577 7.64556 29.7523 10.4075C33.347 13.1677 35.4526 17.4452 35.449 21.9779C35.4525 25.8418 33.9191 29.5488 31.1857 32.2803L31.1768 32.28ZM20.8832 8.28381C16.6252 8.28202 12.6098 10.263 10.0171 13.6381C7.42451 17.0152 6.55079 21.4071 7.65274 25.5185C8.7529 29.632 11.7038 32.9985 15.6372 34.6281C19.5706 36.2578 24.037 35.9654 27.7243 33.8382C31.4116 31.7092 33.8989 27.9881 34.4553 23.7677C35.0134 19.5454 33.5745 15.3072 30.5647 12.2954C27.9989 9.72426 24.5152 8.28025 20.8832 8.28381ZM28.9443 18.2027L17.5327 29.1081C17.1708 29.4504 16.6804 29.6234 16.183 29.5877C15.6873 29.5539 15.2272 29.3114 14.917 28.9209L10.5806 23.4703C10.29 23.1012 10.1563 22.6322 10.2115 22.1668C10.2668 21.6997 10.504 21.2735 10.873 20.9829C11.6398 20.3766 12.7542 20.5068 13.3604 21.2753L16.4647 25.1962L26.5069 15.6105C27.2183 14.9347 28.3416 14.9632 29.0174 15.6747C29.6932 16.3843 29.6647 17.5094 28.9532 18.1852L28.9443 18.2027Z" fill="#008186"/>
</svg>
