<svg width="48" height="44" viewBox="0 0 48 44" fill="none" xmlns="http://www.w3.org/2000/svg">
<path fill-rule="evenodd" clip-rule="evenodd" d="M47.719 36.6906H0.278442V10.4239C0.278442 9.62698 0.887387 8.9802 1.63768 8.9802H8.03431C8.7846 8.9802 9.39354 9.62698 9.39354 10.4239V5.80402C9.39354 5.00711 10.0025 4.36033 10.7528 4.36033H14.7571C15.5074 4.36033 16.1164 5.00711 16.1164 5.80402V15.0408C16.1164 14.2439 16.7253 13.5971 17.4756 13.5971H22.6408C23.3911 13.5971 24 14.2439 24 15.0408V8.0013C24 7.20439 24.6089 6.55761 25.3592 6.55761H31.7559C32.5061 6.55761 33.1151 7.20439 33.1151 8.0013V1.93197C33.1151 1.13506 33.724 0.488281 34.4743 0.488281H38.4787C39.229 0.488281 39.8379 1.13506 39.8379 1.93197V14.2038C39.8379 13.4069 40.4469 12.7601 41.1971 12.7601H46.3623C47.1126 12.7601 47.7215 13.4069 47.7215 14.2038V36.6912L47.719 36.6906Z" fill="#FCF2DC"/>
<path d="M0.278442 38.1695H47.7216V42.7726C47.7216 43.1808 47.41 43.5117 47.0256 43.5117H0.97438C0.590025 43.5117 0.278442 43.1808 0.278442 42.7726V38.1695Z" fill="#FCF2DC"/>
</svg>
