<svg width="48" height="54" viewBox="0 0 48 54" fill="none" xmlns="http://www.w3.org/2000/svg">
<path fill-rule="evenodd" clip-rule="evenodd" d="M0.86499 16.4395L0.957085 49.8921C2.39564 50.9502 3.88192 51.7834 5.42209 52.3468C6.89244 52.8838 8.41676 53.1774 10.0014 53.1827L10.2173 19.9813C8.3532 19.9522 6.60978 19.6242 4.99018 18.984C3.50715 18.3994 2.13209 17.553 0.868161 16.4394L0.86499 16.4395ZM15.3335 17.2568L15.4256 50.7094C16.8641 51.7675 18.3504 52.6007 19.8906 53.1641C21.3609 53.7011 22.8852 53.9947 24.4699 54L24.6858 20.7986C22.8217 20.7695 21.0783 20.4415 19.4587 19.8013C17.9756 19.2168 16.6006 18.3703 15.3366 17.2567L15.3335 17.2568ZM14.6666 17.1325L10.8844 19.8332L10.6716 52.8626L14.7587 50.0323L14.6666 17.1295V17.1325ZM14.7714 16.3257L10.427 19.4284C8.58514 19.4231 6.86392 19.111 5.27293 18.4815C3.73275 17.8731 2.30688 16.9632 1.00482 15.7438L23.5746 0C24.5813 0.896684 25.715 1.63207 26.9599 2.22458L7.02334 16.199C6.88361 16.2968 6.86456 16.4714 6.98206 16.5904C7.09956 16.7068 7.30915 16.7227 7.45205 16.6248L27.5894 2.51027L27.6465 2.53408C29.0597 3.12923 30.6031 3.55773 32.2513 3.84342L14.7943 16.3071L14.7816 16.3177C14.7785 16.3203 14.7721 16.3229 14.7689 16.3256L14.7714 16.3257ZM27.2456 13.7097C27.3441 13.7123 27.4425 13.715 27.541 13.7203C29.1003 13.8102 30.5166 14.4027 31.628 15.4396L46.7095 4.67155C45.074 4.42291 43.5497 4.01291 42.146 3.41774C42.1016 3.39922 42.0571 3.37806 42.0126 3.35954L27.2491 13.7071L27.2456 13.7097ZM26.0262 13.8393L21.8279 16.7807C21.7295 16.8389 21.6723 16.9394 21.6913 17.0452C21.7167 17.1986 21.8851 17.3044 22.0692 17.2806C22.5456 17.2224 23.0125 17.2092 23.4633 17.2357C24.7939 17.3124 25.988 17.7594 26.9121 18.5768C26.9598 18.6191 27.0042 18.6614 27.0519 18.7037L24.8988 20.2405C23.0569 20.2352 21.3357 19.9231 19.7447 19.2936C18.2045 18.6852 16.7786 17.7753 15.4766 16.5559L33.2002 4.19244C33.2097 4.1845 33.2193 4.17921 33.2288 4.17128L38.0431 0.811996C39.0498 1.72459 40.1677 2.47048 41.384 3.06562L26.0643 13.8046C26.0516 13.8125 26.0389 13.8231 26.0262 13.831L26.0262 13.8393ZM29.6083 23.7C29.5956 23.1551 29.548 22.6419 29.4654 22.1605C29.205 20.6528 28.6143 19.4572 27.7823 18.5711C27.6584 18.4415 27.5314 18.3172 27.398 18.1981C26.35 17.2723 25.0068 16.7698 23.5046 16.6825C23.3458 16.6719 23.1839 16.6692 23.0219 16.6692L26.3945 14.3045C26.766 14.2648 27.1344 14.2569 27.4933 14.278C28.881 14.36 30.1449 14.8891 31.1358 15.8201C31.1961 15.8783 31.2565 15.9365 31.3168 15.9973C31.3232 16.0026 31.3263 16.0079 31.3327 16.0132L31.3359 16.0159C32.2409 16.9522 32.8951 18.2457 33.1714 19.8566C33.2952 20.5734 33.3429 21.3511 33.3048 22.1869L31.5169 21.0575C31.4915 21.0389 31.4629 21.0231 31.4311 21.0125C31.2628 20.949 31.0659 21.0125 30.9897 21.1527L29.6051 23.7026L29.6083 23.7ZM29.5035 25.2341C29.4813 25.2606 29.4559 25.2817 29.4241 25.3003L29.4177 25.3029L29.4114 25.3082L29.386 25.3188C29.3542 25.332 29.3161 25.3426 29.278 25.3479H29.2685L29.2621 25.3505H29.259H29.2558H29.2494C29.224 25.3532 29.1986 25.3505 29.1732 25.3479L29.1446 25.3399C29.1129 25.332 29.0811 25.3214 29.0525 25.3082L29.0462 25.3029L29.0367 25.2976C29.0049 25.2791 28.9763 25.2553 28.9541 25.2315L28.9509 25.2262L28.9446 25.2209L28.9319 25.1997C28.916 25.1733 28.9033 25.1416 28.8969 25.1098V25.1019L28.8938 25.0966V25.0939V25.0913V25.086C28.8906 25.0728 28.8938 25.0596 28.8938 25.0463C28.9795 24.0041 28.9446 23.0651 28.8017 22.2346C28.5826 20.957 28.1125 19.9281 27.4584 19.1425L25.3497 20.6476L25.1369 53.677L47.1287 38.4546L47.135 5.10218L32.0471 15.873C32.9267 16.8648 33.5619 18.1795 33.8349 19.7798C33.9906 20.6791 34.0318 21.6711 33.9397 22.745C33.927 22.8984 33.7683 23.0148 33.5841 23.0042C33.5079 22.9989 33.438 22.9751 33.384 22.9354L31.4278 21.7002L29.5351 25.1864C29.5288 25.1996 29.5224 25.2102 29.5129 25.2234L29.5066 25.2287L29.5002 25.2367L29.5035 25.2341ZM31.4629 25.8081C31.3804 25.8584 31.3264 25.9404 31.3264 26.033V29.879C31.3264 29.9425 31.3549 30.0086 31.4089 30.0615C31.5296 30.1779 31.7392 30.1911 31.8789 30.0906L42.5776 22.3826C42.6602 22.3323 42.7142 22.2503 42.7142 22.1577V18.3117C42.7142 18.2482 42.6856 18.1821 42.6316 18.1292C42.511 18.0128 42.3014 17.9996 42.1616 18.1001L31.4629 25.8081Z" fill="#FCF2DC"/>
</svg>
