<svg width="117" height="25" viewBox="0 0 117 25" fill="none" xmlns="http://www.w3.org/2000/svg">
<path d="M51.6284 22.6509C49.8497 22.6509 48.3223 22.3352 47.0467 21.7038C45.7711 21.0724 44.729 20.2515 43.9203 19.2412C43.1299 18.231 42.5459 17.1305 42.1686 15.9398C41.7914 14.7492 41.6025 13.6036 41.6025 12.5031V11.9078C41.6025 10.681 41.7914 9.47228 42.1686 8.2816C42.5638 7.09092 43.1658 6.00852 43.9741 5.03432C44.7828 4.06012 45.807 3.2844 47.0467 2.70708C48.3044 2.11176 49.7867 1.81408 51.4933 1.81408C53.2721 1.81408 54.8174 2.1388 56.1292 2.78828C57.4586 3.41968 58.5187 4.32172 59.309 5.49436C60.0998 6.64896 60.5758 8.002 60.7376 9.55348H56.8837C56.7399 8.65144 56.4164 7.89372 55.9133 7.28036C55.4285 6.64896 54.8086 6.17988 54.0537 5.8732C53.2992 5.54848 52.4459 5.38612 51.4933 5.38612C50.5233 5.38612 49.6608 5.55748 48.9063 5.90028C48.1518 6.225 47.5228 6.69404 47.0196 7.30744C46.5165 7.9208 46.1305 8.64244 45.8608 9.47228C45.6094 10.3022 45.4835 11.2222 45.4835 12.2325C45.4835 13.2067 45.6094 14.1087 45.8608 14.9386C46.1305 15.7684 46.5256 16.4991 47.0467 17.1305C47.5678 17.7439 48.2056 18.222 48.9601 18.5647C49.7325 18.9075 50.6221 19.0789 51.6284 19.0789C53.1016 19.0789 54.3413 18.718 55.3476 17.9964C56.3714 17.2568 56.9913 16.2285 57.2072 14.9115H61.0611C60.8814 16.3187 60.4053 17.6086 59.6325 18.7812C58.8601 19.9538 57.8 20.8919 56.4523 21.5955C55.105 22.2991 53.4968 22.6509 51.6284 22.6509Z" fill="#FCF2DC"/>
<path d="M62.835 22.1367V2.38237H66.5813V22.1367H62.835ZM61.0024 5.19669V2.38237H66.5813V5.19669H61.0024Z" fill="#FCF2DC"/>
<path d="M76.5445 22.6509C75.251 22.6509 74.1101 22.4434 73.1217 22.0285C72.1338 21.6136 71.298 21.0543 70.6156 20.3507C69.9328 19.6291 69.4117 18.8173 69.0523 17.9152C68.7109 17.0132 68.54 16.0751 68.54 15.1009V14.5326C68.54 13.5224 68.7197 12.5662 69.079 11.6642C69.4563 10.7442 69.9865 9.93232 70.6693 9.22872C71.3701 8.50712 72.2146 7.94788 73.2026 7.55096C74.191 7.13604 75.3048 6.92856 76.5445 6.92856C77.7843 6.92856 78.8981 7.13604 79.8865 7.55096C80.8745 7.94788 81.7102 8.50712 82.3927 9.22872C83.0934 9.93232 83.6236 10.7442 83.983 11.6642C84.3423 12.5662 84.522 13.5224 84.522 14.5326V15.1009C84.522 16.0751 84.3423 17.0132 83.983 17.9152C83.6416 18.8173 83.1297 19.6291 82.4468 20.3507C81.764 21.0543 80.9286 21.6136 79.9403 22.0285C78.9523 22.4434 77.8201 22.6509 76.5445 22.6509ZM76.5445 19.4306C77.4608 19.4306 78.2332 19.2322 78.8623 18.8353C79.4913 18.4204 79.9674 17.8702 80.2908 17.1846C80.6139 16.481 80.7757 15.6872 80.7757 14.8033C80.7757 13.9012 80.6052 13.1074 80.2638 12.4219C79.9403 11.7183 79.4551 11.1681 78.8085 10.7712C78.1795 10.3563 77.425 10.1488 76.5445 10.1488C75.6641 10.1488 74.9005 10.3563 74.2539 10.7712C73.6249 11.1681 73.1397 11.7183 72.7982 12.4219C72.4568 13.1074 72.2863 13.9012 72.2863 14.8033C72.2863 15.6872 72.4481 16.481 72.7716 17.1846C73.113 17.8702 73.5978 18.4204 74.2268 18.8353C74.8554 19.2322 75.6283 19.4306 76.5445 19.4306Z" fill="#FCF2DC"/>
<path d="M91.4404 22.5968C89.7513 22.5968 88.4398 22.0375 87.5056 20.919C86.5894 19.8005 86.1309 18.1408 86.1309 15.9398V7.41569H89.8772V16.2646C89.8772 17.1666 90.1289 17.8882 90.6317 18.4294C91.1348 18.9526 91.8176 19.2142 92.6801 19.2142C93.5426 19.2142 94.2433 18.9346 94.7823 18.3753C95.3393 17.8161 95.6177 17.0583 95.6177 16.1022V7.41569H99.364V22.1367H96.3993V15.8857H96.6957C96.6957 17.365 96.5073 18.6008 96.1296 19.5931C95.7524 20.5853 95.1867 21.3339 94.4318 21.8391C93.6772 22.3442 92.7339 22.5968 91.6021 22.5968H91.4404Z" fill="#FCF2DC"/>
<path d="M108.384 22.6238C107.359 22.6238 106.416 22.4344 105.554 22.0556C104.692 21.6767 103.946 21.1445 103.317 20.459C102.688 19.7734 102.203 18.9796 101.862 18.0776C101.52 17.1576 101.35 16.1653 101.35 15.1009V14.5326C101.35 13.4863 101.511 12.5031 101.834 11.583C102.176 10.663 102.643 9.86017 103.236 9.17461C103.847 8.48909 104.574 7.95689 105.419 7.57805C106.281 7.18113 107.234 6.98269 108.276 6.98269C109.426 6.98269 110.432 7.23529 111.294 7.74041C112.175 8.22749 112.875 8.96717 113.396 9.95941C113.917 10.9516 114.205 12.1964 114.259 13.6938L113.154 12.3948V2.38237H116.9V22.1367H113.935V15.8857H114.582C114.528 17.383 114.223 18.6369 113.666 19.6472C113.109 20.6394 112.372 21.388 111.456 21.8932C110.558 22.3803 109.533 22.6238 108.384 22.6238ZM109.219 19.4577C109.956 19.4577 110.63 19.2954 111.24 18.9706C111.851 18.6278 112.336 18.1408 112.696 17.5094C113.073 16.8599 113.262 16.1022 113.262 15.2362V14.1538C113.262 13.2878 113.073 12.5662 112.696 11.9889C112.318 11.3936 111.824 10.9426 111.213 10.6359C110.603 10.3112 109.938 10.1488 109.219 10.1488C108.41 10.1488 107.692 10.3472 107.063 10.7442C106.452 11.123 105.967 11.6642 105.608 12.3678C105.266 13.0714 105.096 13.8922 105.096 14.8303C105.096 15.7684 105.275 16.5893 105.635 17.2928C105.994 17.9784 106.479 18.5106 107.09 18.8894C107.719 19.2683 108.429 19.4577 109.219 19.4577Z" fill="#FCF2DC"/>
<path d="M27.4885 24.2141C26.1942 24.2141 25.3968 23.6141 24.0939 22.9074C22.7911 22.2008 19.0228 19.3557 19.0228 15.8141C19.0228 13.4116 18.406 11.4684 17.3556 9.91976C16.313 8.38304 14.9006 7.31836 13.4312 6.5668C12.7232 6.20472 11.9863 5.9086 11.2526 5.66388C10.8249 5.52132 10.5767 5.06016 10.7623 4.64788C11.9385 2.03324 14.5581 0.214081 17.6011 0.214081C21.7434 0.214081 25.1015 3.58576 25.1015 7.74512C25.1015 8.63496 24.9478 9.48888 24.6656 10.2813C25.8612 9.47228 27.3017 9.0002 28.8517 9.0002C32.994 9.0002 36.3519 12.3719 36.3519 16.5313C36.3519 21.5385 31.9698 24.2141 27.4885 24.2141Z" fill="#FCF2DC"/>
<path d="M0.100098 15.9037C0.100098 19.8734 2.70665 23.1811 6.15971 23.9119C6.69269 24.1074 7.2681 24.2141 7.86837 24.2141H19.5217C19.9125 24.2141 20.0827 23.6893 19.7843 23.4358C17.7477 21.7055 16.2342 19.267 16.2342 15.8141C16.2342 13.9168 15.7557 12.535 15.0508 11.4961C14.3378 10.4453 13.3351 9.65995 12.1655 9.06155C10.9849 8.45783 9.70328 8.07323 8.47936 7.80059C8.19109 7.76407 7.89773 7.74511 7.60051 7.74511C3.45806 7.74511 0.100098 11.3979 0.100098 15.9037Z" fill="#FCF2DC"/>
</svg>
