<svg width="46" height="37" viewBox="0 0 46 37" fill="none" xmlns="http://www.w3.org/2000/svg">
<path fill-rule="evenodd" clip-rule="evenodd" d="M3.68329 0.198486H34.8084C35.0043 0.198486 35.1872 0.208363 35.37 0.228117C36.3235 0.336764 36.9896 0.978766 36.9243 1.70966C36.846 2.43068 36.0492 2.98379 35.0958 2.98379H5.74698C4.45391 2.98379 3.39594 3.78382 3.39594 4.76164C3.39594 5.74934 4.45391 6.54937 5.74698 6.54937H6.32168V13.2953L9.29966 11.5076L12.3952 13.2953V6.54937H36.6631C37.6688 6.54937 38.4917 7.17162 38.4917 7.93215V20.0117C37.0158 20.2388 35.7619 20.8315 34.7953 21.671C33.5806 20.5944 31.8957 19.903 29.8582 19.8734C27.2328 19.824 24.7904 20.9203 23.4059 22.5896C21.6687 24.7131 21.943 27.2515 23.2361 29.4639C24.6075 31.8048 27.1022 33.8888 29.8451 35.637H3.68329C1.65879 35.637 0 34.3826 0 32.8517V2.98379C0 1.45286 1.65879 0.198486 3.68329 0.198486ZM34.7953 37C12.1078 25.4638 30.5896 16.1201 34.7953 23.8637C38.9227 16.2387 57.7963 25.3057 34.7953 37Z" fill="#008186"/>
</svg>
