<svg width="153" height="31" viewBox="0 0 153 31" fill="none" xmlns="http://www.w3.org/2000/svg">
<path fill-rule="evenodd" clip-rule="evenodd" d="M29.0095 8.48682C29.5566 8.48682 30 8.93023 30 9.47733C30 10.0244 29.5566 10.4678 29.0095 10.4678H26.6402L24.4474 23.8806C24.3591 24.3549 23.9422 24.688 23.4767 24.6858V24.688H2.68035C2.48621 24.7365 2.31855 24.8424 2.19722 24.9858C2.06045 25.1469 1.97882 25.3586 1.97882 25.5925C1.97882 25.8263 2.06045 26.0381 2.19722 26.1991C2.32076 26.3425 2.48621 26.4506 2.68035 26.497H22.259C22.8061 26.497 23.2495 26.9404 23.2495 27.4875C23.2495 28.0346 22.8061 28.478 22.259 28.478H19.7485C19.9757 28.7251 20.1147 29.0538 20.1147 29.4156C20.1147 30.1788 19.497 30.7965 18.7337 30.7965C17.9704 30.7965 17.3527 30.1788 17.3527 29.4156C17.3527 29.0538 17.4917 28.7251 17.719 28.478H7.08802C7.31524 28.7251 7.45423 29.0538 7.45423 29.4156C7.45423 30.1788 6.83653 30.7965 6.07324 30.7965C5.30995 30.7965 4.69226 30.1788 4.69226 29.4156C4.69226 29.0538 4.83124 28.7251 5.05846 28.478H2.60093V28.4758C2.55019 28.4758 2.49724 28.4714 2.44651 28.4626C1.74278 28.3478 1.1317 27.986 0.697111 27.4764C0.260314 26.9624 0 26.3028 0 25.5947C0 24.8865 0.260314 24.2269 0.697111 23.7129C1.11185 23.2254 1.68321 22.8746 2.34282 22.7445C2.42445 22.7224 2.51269 22.7114 2.60093 22.7114H22.6583L24.8401 9.36482C24.8974 8.87287 25.3144 8.48902 25.824 8.48902H29.0095V8.48682Z" fill="white"/>
<path fill-rule="evenodd" clip-rule="evenodd" d="M2.60752 18.9676L6.10851 0.258107C6.13719 0.10589 6.26955 0 6.41956 0H23.2517C23.3973 0 23.5208 0.0992715 23.5583 0.23384L24.626 3.37084C24.6415 3.41937 24.6481 3.47011 24.6393 3.52305L21.6832 21.3236C21.6677 21.4847 21.5332 21.6126 21.3677 21.6126H4.5356L4.50471 21.6104C4.08556 21.5685 3.6973 21.4075 3.38184 21.156C3.06637 20.9045 2.81929 20.5647 2.68472 20.1655C2.66708 20.1125 2.65164 20.0618 2.6384 20.0088C2.54795 19.6823 2.52148 19.3139 2.60752 18.9676ZM3.223 19.111L3.19432 19.261C3.17226 19.4551 3.19432 19.6581 3.24506 19.8456C3.25609 19.8853 3.26712 19.925 3.28036 19.9625C3.37522 20.2427 3.5495 20.4831 3.77231 20.6618C3.9885 20.8339 4.25543 20.9486 4.54001 20.9795H21.0986L24.0017 3.50099L23.3576 1.61041L20.6044 18.1932C20.5802 18.3477 20.4456 18.458 20.2934 18.458H3.91349L3.85393 18.4756C3.51861 18.5903 3.3333 18.7955 3.24947 19.0315C3.23844 19.0558 3.23182 19.0845 3.223 19.111Z" fill="white"/>
<path d="M39.66 23.3979V8.49795H41.3L49.86 20.5379L49.12 20.6179V8.49795H51.1V23.3979H49.46L40.94 11.2779L41.62 11.1979V23.3979H39.66ZM59.3256 23.6379C58.2856 23.6379 57.3456 23.3979 56.5056 22.9179C55.6656 22.4246 54.999 21.7513 54.5056 20.8979C54.0123 20.0446 53.7656 19.0779 53.7656 17.9979C53.7656 16.9179 54.0056 15.9579 54.4856 15.1179C54.979 14.2779 55.6456 13.6113 56.4856 13.1179C57.3256 12.6246 58.2723 12.3779 59.3256 12.3779C60.3656 12.3779 61.3056 12.6246 62.1456 13.1179C62.9856 13.5979 63.6456 14.2579 64.1256 15.0979C64.619 15.9379 64.8656 16.9046 64.8656 17.9979C64.8656 19.0913 64.6123 20.0646 64.1056 20.9179C63.599 21.7579 62.9256 22.4246 62.0856 22.9179C61.259 23.3979 60.339 23.6379 59.3256 23.6379ZM59.3256 21.8379C59.9923 21.8379 60.5923 21.6713 61.1256 21.3379C61.6723 21.0046 62.099 20.5446 62.4056 19.9579C62.7256 19.3713 62.8856 18.7179 62.8856 17.9979C62.8856 17.2646 62.7256 16.6179 62.4056 16.0579C62.099 15.4846 61.6723 15.0313 61.1256 14.6979C60.5923 14.3513 59.9923 14.1779 59.3256 14.1779C58.6456 14.1779 58.0323 14.3513 57.4856 14.6979C56.9523 15.0313 56.5256 15.4846 56.2056 16.0579C55.8856 16.6179 55.7256 17.2646 55.7256 17.9979C55.7256 18.7179 55.8856 19.3713 56.2056 19.9579C56.5256 20.5446 56.9523 21.0046 57.4856 21.3379C58.0323 21.6713 58.6456 21.8379 59.3256 21.8379ZM70.0963 23.3979L65.8763 12.6179H67.9563L71.3363 21.7379H70.6163L74.0163 12.6179H76.0963L71.8563 23.3979H70.0963ZM82.525 23.6379C81.485 23.6379 80.5583 23.3913 79.745 22.8979C78.9317 22.4046 78.2917 21.7313 77.825 20.8779C77.3583 20.0113 77.125 19.0446 77.125 17.9779C77.125 16.8979 77.3517 15.9379 77.805 15.0979C78.2717 14.2579 78.8983 13.5979 79.685 13.1179C80.485 12.6246 81.3783 12.3779 82.365 12.3779C83.165 12.3779 83.8717 12.5246 84.485 12.8179C85.1117 13.0979 85.6383 13.4846 86.065 13.9779C86.505 14.4579 86.8383 15.0113 87.065 15.6379C87.305 16.2513 87.425 16.8913 87.425 17.5579C87.425 17.7046 87.4117 17.8713 87.385 18.0579C87.3717 18.2313 87.3517 18.3979 87.325 18.5579H78.485V16.9579H86.245L85.365 17.6779C85.485 16.9846 85.4183 16.3646 85.165 15.8179C84.9117 15.2713 84.5383 14.8379 84.045 14.5179C83.5517 14.1979 82.9917 14.0379 82.365 14.0379C81.7383 14.0379 81.165 14.1979 80.645 14.5179C80.125 14.8379 79.7183 15.2979 79.425 15.8979C79.145 16.4846 79.0317 17.1846 79.085 17.9979C79.0317 18.7846 79.1517 19.4779 79.445 20.0779C79.7517 20.6646 80.1783 21.1246 80.725 21.4579C81.285 21.7779 81.8917 21.9379 82.545 21.9379C83.265 21.9379 83.8717 21.7713 84.365 21.4379C84.8583 21.1046 85.2583 20.6779 85.565 20.1579L87.125 20.9579C86.9117 21.4513 86.5783 21.9046 86.125 22.3179C85.685 22.7179 85.1583 23.0379 84.545 23.2779C83.945 23.5179 83.2717 23.6379 82.525 23.6379ZM89.8502 23.3979V8.25795H91.7102V23.3979H89.8502ZM94.8163 23.3979V8.49795H96.4563L105.016 20.5379L104.276 20.6179V8.49795H106.256V23.3979H104.616L96.0962 11.2779L96.7763 11.1979V23.3979H94.8163ZM114.322 23.6379C113.282 23.6379 112.355 23.3913 111.542 22.8979C110.729 22.4046 110.089 21.7313 109.622 20.8779C109.155 20.0113 108.922 19.0446 108.922 17.9779C108.922 16.8979 109.149 15.9379 109.602 15.0979C110.069 14.2579 110.695 13.5979 111.482 13.1179C112.282 12.6246 113.175 12.3779 114.162 12.3779C114.962 12.3779 115.669 12.5246 116.282 12.8179C116.909 13.0979 117.435 13.4846 117.862 13.9779C118.302 14.4579 118.635 15.0113 118.862 15.6379C119.102 16.2513 119.222 16.8913 119.222 17.5579C119.222 17.7046 119.209 17.8713 119.182 18.0579C119.169 18.2313 119.149 18.3979 119.122 18.5579H110.282V16.9579H118.042L117.162 17.6779C117.282 16.9846 117.215 16.3646 116.962 15.8179C116.709 15.2713 116.335 14.8379 115.842 14.5179C115.349 14.1979 114.789 14.0379 114.162 14.0379C113.535 14.0379 112.962 14.1979 112.442 14.5179C111.922 14.8379 111.515 15.2979 111.222 15.8979C110.942 16.4846 110.829 17.1846 110.882 17.9979C110.829 18.7846 110.949 19.4779 111.242 20.0779C111.549 20.6646 111.975 21.1246 112.522 21.4579C113.082 21.7779 113.689 21.9379 114.342 21.9379C115.062 21.9379 115.669 21.7713 116.162 21.4379C116.655 21.1046 117.055 20.6779 117.362 20.1579L118.922 20.9579C118.709 21.4513 118.375 21.9046 117.922 22.3179C117.482 22.7179 116.955 23.0379 116.342 23.2779C115.742 23.5179 115.069 23.6379 114.322 23.6379ZM120.232 23.3979L124.012 17.9979L120.252 12.6179H122.492L125.712 17.2979H124.572L127.752 12.6179H130.012L126.252 17.9979L129.992 23.3979H127.752L124.572 18.7179H125.692L122.512 23.3979H120.232ZM135.487 23.6379C134.713 23.6379 134.013 23.4579 133.387 23.0979C132.773 22.7379 132.293 22.2379 131.947 21.5979C131.613 20.9446 131.447 20.1979 131.447 19.3579V12.6179H133.307V19.1579C133.307 19.6913 133.413 20.1579 133.627 20.5579C133.853 20.9579 134.16 21.2713 134.547 21.4979C134.947 21.7246 135.4 21.8379 135.907 21.8379C136.413 21.8379 136.86 21.7246 137.247 21.4979C137.647 21.2713 137.953 20.9446 138.167 20.5179C138.393 20.0913 138.507 19.5846 138.507 18.9979V12.6179H140.387V23.3979H138.567V21.2979L138.867 21.4779C138.613 22.1579 138.18 22.6913 137.567 23.0779C136.967 23.4513 136.273 23.6379 135.487 23.6379ZM147.128 23.6379C146.048 23.6379 145.108 23.3713 144.308 22.8379C143.508 22.3046 142.941 21.5846 142.608 20.6779L144.088 19.9579C144.395 20.5979 144.815 21.1046 145.348 21.4779C145.881 21.8513 146.475 22.0379 147.128 22.0379C147.715 22.0379 148.201 21.8979 148.588 21.6179C148.975 21.3379 149.168 20.9713 149.168 20.5179C149.168 20.1979 149.075 19.9446 148.888 19.7579C148.715 19.5579 148.501 19.4046 148.248 19.2979C147.995 19.1779 147.761 19.0913 147.548 19.0379L145.928 18.5779C144.955 18.2979 144.241 17.8979 143.788 17.3779C143.348 16.8579 143.128 16.2513 143.128 15.5579C143.128 14.9179 143.288 14.3646 143.608 13.8979C143.941 13.4179 144.388 13.0446 144.948 12.7779C145.521 12.5113 146.161 12.3779 146.868 12.3779C147.815 12.3779 148.661 12.6179 149.408 13.0979C150.168 13.5779 150.708 14.2513 151.028 15.1179L149.508 15.8179C149.268 15.2579 148.908 14.8179 148.428 14.4979C147.948 14.1646 147.408 13.9979 146.808 13.9979C146.261 13.9979 145.828 14.1379 145.508 14.4179C145.188 14.6846 145.028 15.0246 145.028 15.4379C145.028 15.7446 145.108 15.9979 145.268 16.1979C145.428 16.3846 145.621 16.5313 145.848 16.6379C146.075 16.7313 146.295 16.8113 146.508 16.8779L148.268 17.3979C149.148 17.6513 149.828 18.0446 150.308 18.5779C150.801 19.1113 151.048 19.7513 151.048 20.4979C151.048 21.0979 150.881 21.6379 150.548 22.1179C150.215 22.5979 149.755 22.9713 149.168 23.2379C148.581 23.5046 147.901 23.6379 147.128 23.6379Z" fill="white"/>
</svg>
