<svg width="85" height="25" viewBox="0 0 85 25" fill="none" xmlns="http://www.w3.org/2000/svg">
<path d="M40.2462 14.697V23.2135H43.0127V14.1435C43.0127 12.9957 42.7667 11.9811 42.2751 11.0997C41.7831 10.2183 41.1069 9.53168 40.2462 9.03973C39.4059 8.5478 38.4325 8.30185 37.3258 8.30185C36.2191 8.30185 35.2251 8.55805 34.344 9.0705C33.6803 9.44105 33.1269 9.91627 32.6839 10.4962V1.26105H29.9175V23.2135H32.6839V14.697C32.6839 13.959 32.8478 13.3032 33.1758 12.7292C33.5036 12.1553 33.9545 11.7044 34.5285 11.3764C35.1022 11.0485 35.758 10.8845 36.4959 10.8845C37.6023 10.8845 38.5041 11.2432 39.2009 11.9606C39.8978 12.678 40.2462 13.5901 40.2462 14.697Z" fill="#FCF2DC"/>
<path d="M47.865 22.7215C48.8282 23.2545 49.9142 23.5209 51.1234 23.5209C52.3529 23.5209 53.429 23.2545 54.3512 22.7215C55.2937 22.168 56.0316 21.4096 56.5645 20.4463C57.0972 19.4829 57.3636 18.3658 57.3636 17.0951V8.60925H54.5971V16.9722C54.5971 18.1816 54.2897 19.1344 53.6747 19.8314C53.0599 20.508 52.2097 20.846 51.1234 20.846C50.4061 20.846 49.7812 20.6923 49.2482 20.3848C48.7152 20.0774 48.3054 19.6366 48.0187 19.0628C47.752 18.4683 47.619 17.7714 47.619 16.9722V8.60925H44.8523V17.0951C44.8523 18.3658 45.1186 19.4829 45.6516 20.4463C46.1843 21.4096 46.9222 22.168 47.865 22.7215Z" fill="#FCF2DC"/>
<path fill-rule="evenodd" clip-rule="evenodd" d="M66.2978 23.521C64.8427 23.521 63.5311 23.1932 62.3629 22.5373C61.1948 21.8607 60.2724 20.9485 59.5962 19.8009C58.92 18.653 58.5818 17.3513 58.5818 15.8959C58.5818 14.4613 58.9098 13.17 59.5656 12.0221C60.2418 10.8743 61.1436 9.97239 62.2707 9.31647C63.4184 8.64005 64.6992 8.30187 66.1132 8.30187C67.4659 8.30187 68.6544 8.60931 69.679 9.22424C70.7242 9.83914 71.5337 10.6898 72.1075 11.7761C72.7019 12.8625 72.999 14.0923 72.999 15.4657C72.999 15.6706 72.9889 15.8959 72.9682 16.142C72.9478 16.3676 72.9068 16.634 72.8454 16.9414H61.4102C61.5077 17.5103 61.6818 18.0329 61.9324 18.5094C62.3423 19.2678 62.9265 19.8623 63.6847 20.2926C64.443 20.7025 65.3139 20.9075 66.2978 20.9075C67.1175 20.9075 67.8655 20.7643 68.5417 20.4772C69.2386 20.1901 69.8327 19.7599 70.3246 19.1857L72.1075 20.9998C71.4109 21.8196 70.5502 22.445 69.5253 22.8753C68.5213 23.3058 67.4452 23.521 66.2978 23.521ZM61.9019 13.1905C61.6722 13.6258 61.5101 14.1074 61.416 14.6356H70.3025C70.2271 14.031 70.0705 13.4981 69.8327 13.0367C69.4845 12.3398 68.9926 11.8069 68.3572 11.4379C67.722 11.0485 66.9536 10.8538 66.0518 10.8538C65.109 10.8538 64.2791 11.0587 63.5616 11.4687C62.8444 11.8786 62.291 12.4525 61.9019 13.1905Z" fill="#FCF2DC"/>
<path d="M74.7861 22.2912C75.4008 22.6805 76.0671 22.9882 76.7843 23.2136C77.5219 23.4185 78.3009 23.521 79.1206 23.521C80.7599 23.521 82.0614 23.1213 83.0246 22.3218C84.0084 21.5227 84.5 20.4361 84.5 19.0629C84.5 18.161 84.3053 17.4334 83.9161 16.88C83.547 16.3265 83.0656 15.8858 82.4712 15.5579C81.8768 15.2298 81.2519 14.9736 80.5961 14.7893C79.9402 14.5844 79.3051 14.3895 78.6901 14.205C78.096 14.0206 77.6142 13.7951 77.2454 13.5286C76.8766 13.2622 76.6921 12.883 76.6921 12.3911C76.6921 11.8991 76.897 11.5199 77.3068 11.2535C77.7373 10.9665 78.3521 10.823 79.1514 10.823C79.9097 10.823 80.5859 10.9665 81.1803 11.2535C81.795 11.5404 82.3073 11.9504 82.7172 12.4833L84.5 10.7C83.9263 9.90066 83.1884 9.30622 82.287 8.91678C81.4056 8.50683 80.3911 8.30187 79.2434 8.30187C78.1574 8.30187 77.2248 8.47609 76.4461 8.82454C75.6878 9.173 75.0935 9.67517 74.6632 10.3311C74.2327 10.9665 74.0176 11.7249 74.0176 12.6063C74.0176 13.4876 74.2022 14.1948 74.571 14.7276C74.9604 15.2607 75.4521 15.6808 76.0464 15.9882C76.6408 16.2957 77.2658 16.5519 77.9216 16.7568C78.5981 16.9414 79.2332 17.1362 79.8276 17.3411C80.422 17.5257 80.9034 17.7714 81.2722 18.0791C81.6617 18.3659 81.8564 18.7758 81.8564 19.3089C81.8564 19.8417 81.6207 20.2621 81.1494 20.5695C80.6781 20.8563 80.0121 20.9998 79.1514 20.9998C78.2907 20.9998 77.5118 20.8461 76.8149 20.5386C76.1184 20.2108 75.5033 19.7188 74.9706 19.0629L73.1877 20.8461C73.6386 21.3995 74.1713 21.8813 74.7861 22.2912Z" fill="#FCF2DC"/>
<path d="M3.3855 7.28957C4.24707 10.0525 7.1849 11.5938 9.94732 10.732C12.7098 9.87034 19.2527 5.37176 18.3911 2.60883C17.5295 -0.154101 9.58984 -0.135091 6.82739 0.726603C4.06494 1.5883 2.52395 4.52664 3.3855 7.28957Z" fill="#FCF2DC"/>
<path d="M1.71606 22.4397C3.33747 24.0616 5.96602 24.0616 7.58743 22.4397C9.20884 20.8181 12.1444 15.2528 10.5233 13.631C8.90187 12.0095 3.33747 14.9456 1.71606 16.5672C0.0946473 18.1889 0.0946473 20.8181 1.71606 22.4397Z" fill="#FCF2DC"/>
<path d="M17.2307 24.0342C20.026 24.7833 22.8989 23.1242 23.6479 20.3287C24.3966 17.533 24.0941 9.59786 21.2992 8.84869C18.5039 8.09969 14.2751 14.8205 13.5261 17.6159C12.777 20.4117 14.4357 23.2852 17.2307 24.0342Z" fill="#FCF2DC"/>
</svg>
