<svg width="50" height="50" viewBox="0 0 50 50" fill="none" xmlns="http://www.w3.org/2000/svg">
<path d="M25.449 2.11365C20.7053 2.11924 16.1574 4.00618 12.803 7.36052C9.44869 10.7149 7.56176 15.2627 7.55616 20.0065C7.5518 23.8829 8.81795 27.6539 11.1608 30.7422C11.1608 30.7422 11.6487 31.3847 11.7285 31.4774L25.449 47.6591L39.1761 31.4693C39.2477 31.3831 39.7373 30.7422 39.7373 30.7422L39.7389 30.7373C42.0801 27.6501 43.3456 23.881 43.3419 20.0065C43.3363 15.2627 41.4493 10.7149 38.095 7.36052C34.7406 4.00618 30.1928 2.11924 25.449 2.11365ZM25.449 26.513C24.1622 26.513 22.9042 26.1314 21.8342 25.4164C20.7642 24.7015 19.9303 23.6853 19.4378 22.4964C18.9453 21.3075 18.8165 19.9993 19.0675 18.7371C19.3186 17.475 19.9383 16.3157 20.8482 15.4057C21.7582 14.4958 22.9175 13.8761 24.1797 13.625C25.4418 13.374 26.75 13.5028 27.9389 13.9953C29.1278 14.4877 30.144 15.3217 30.859 16.3917C31.5739 17.4617 31.9555 18.7196 31.9555 20.0065C31.9534 21.7315 31.2672 23.3852 30.0474 24.6049C28.8277 25.8246 27.174 26.5108 25.449 26.513Z" fill="#FCF2DC"/>
</svg>
