<svg width="153" height="32" viewBox="0 0 153 32" fill="none" xmlns="http://www.w3.org/2000/svg">
<path fill-rule="evenodd" clip-rule="evenodd" d="M29.0095 9.0885C29.5566 9.0885 30 9.53191 30 10.079C30 10.6261 29.5566 11.0695 29.0095 11.0695H26.6402L24.4474 24.4823C24.3591 24.9566 23.9422 25.2897 23.4767 25.2875V25.2897H2.68035C2.48621 25.3382 2.31855 25.4441 2.19722 25.5875C2.06045 25.7485 1.97882 25.9603 1.97882 26.1942C1.97882 26.428 2.06045 26.6398 2.19722 26.8008C2.32076 26.9442 2.48621 27.0523 2.68035 27.0986H22.259C22.8061 27.0986 23.2495 27.5421 23.2495 28.0892C23.2495 28.6363 22.8061 29.0797 22.259 29.0797H19.7485C19.9757 29.3267 20.1147 29.6555 20.1147 30.0172C20.1147 30.7805 19.497 31.3982 18.7337 31.3982C17.9704 31.3982 17.3527 30.7805 17.3527 30.0172C17.3527 29.6555 17.4917 29.3267 17.719 29.0797H7.08802C7.31524 29.3267 7.45423 29.6555 7.45423 30.0172C7.45423 30.7805 6.83653 31.3982 6.07324 31.3982C5.30995 31.3982 4.69226 30.7805 4.69226 30.0172C4.69226 29.6555 4.83124 29.3267 5.05846 29.0797H2.60093V29.0775C2.55019 29.0775 2.49724 29.0731 2.44651 29.0642C1.74278 28.9495 1.1317 28.5877 0.697111 28.0781C0.260314 27.5641 0 26.9045 0 26.1964C0 25.4882 0.260314 24.8286 0.697111 24.3146C1.11185 23.8271 1.68321 23.4763 2.34282 23.3462C2.42445 23.3241 2.51269 23.3131 2.60093 23.3131H22.6583L24.8401 9.96651C24.8974 9.47456 25.3144 9.09071 25.824 9.09071H29.0095V9.0885Z" fill="#D37643"/>
<path fill-rule="evenodd" clip-rule="evenodd" d="M2.60752 19.5694L6.10851 0.859913C6.13719 0.707696 6.26955 0.601807 6.41956 0.601807H23.2517C23.3973 0.601807 23.5208 0.701078 23.5583 0.835647L24.626 3.97264C24.6415 4.02118 24.6481 4.07191 24.6393 4.12486L21.6832 21.9254C21.6677 22.0865 21.5332 22.2144 21.3677 22.2144H4.5356L4.50471 22.2122C4.08556 22.1703 3.6973 22.0093 3.38184 21.7578C3.06637 21.5063 2.81929 21.1666 2.68472 20.7673C2.66708 20.7143 2.65164 20.6636 2.6384 20.6106C2.54795 20.2841 2.52148 19.9157 2.60752 19.5694ZM3.223 19.7128L3.19432 19.8628C3.17226 20.0569 3.19432 20.2599 3.24506 20.4474C3.25609 20.4871 3.26712 20.5268 3.28036 20.5643C3.37522 20.8445 3.5495 21.0849 3.77231 21.2636C3.9885 21.4357 4.25543 21.5504 4.54001 21.5813H21.0986L24.0017 4.1028L23.3576 2.21222L20.6044 18.7951C20.5802 18.9495 20.4456 19.0598 20.2934 19.0598H3.91349L3.85393 19.0774C3.51861 19.1921 3.3333 19.3973 3.24947 19.6334C3.23844 19.6576 3.23182 19.6863 3.223 19.7128Z" fill="#D37643"/>
<path d="M39.66 24V9.1H41.3L49.86 21.14L49.12 21.22V9.1H51.1V24H49.46L40.94 11.88L41.62 11.8V24H39.66ZM59.3256 24.24C58.2856 24.24 57.3456 24 56.5056 23.52C55.6656 23.0267 54.999 22.3533 54.5056 21.5C54.0123 20.6467 53.7656 19.68 53.7656 18.6C53.7656 17.52 54.0056 16.56 54.4856 15.72C54.979 14.88 55.6456 14.2133 56.4856 13.72C57.3256 13.2267 58.2723 12.98 59.3256 12.98C60.3656 12.98 61.3056 13.2267 62.1456 13.72C62.9856 14.2 63.6456 14.86 64.1256 15.7C64.619 16.54 64.8656 17.5067 64.8656 18.6C64.8656 19.6933 64.6123 20.6667 64.1056 21.52C63.599 22.36 62.9256 23.0267 62.0856 23.52C61.259 24 60.339 24.24 59.3256 24.24ZM59.3256 22.44C59.9923 22.44 60.5923 22.2733 61.1256 21.94C61.6723 21.6067 62.099 21.1467 62.4056 20.56C62.7256 19.9733 62.8856 19.32 62.8856 18.6C62.8856 17.8667 62.7256 17.22 62.4056 16.66C62.099 16.0867 61.6723 15.6333 61.1256 15.3C60.5923 14.9533 59.9923 14.78 59.3256 14.78C58.6456 14.78 58.0323 14.9533 57.4856 15.3C56.9523 15.6333 56.5256 16.0867 56.2056 16.66C55.8856 17.22 55.7256 17.8667 55.7256 18.6C55.7256 19.32 55.8856 19.9733 56.2056 20.56C56.5256 21.1467 56.9523 21.6067 57.4856 21.94C58.0323 22.2733 58.6456 22.44 59.3256 22.44ZM70.0963 24L65.8763 13.22H67.9563L71.3363 22.34H70.6163L74.0163 13.22H76.0963L71.8563 24H70.0963ZM82.525 24.24C81.485 24.24 80.5583 23.9933 79.745 23.5C78.9317 23.0067 78.2917 22.3333 77.825 21.48C77.3583 20.6133 77.125 19.6467 77.125 18.58C77.125 17.5 77.3517 16.54 77.805 15.7C78.2717 14.86 78.8983 14.2 79.685 13.72C80.485 13.2267 81.3783 12.98 82.365 12.98C83.165 12.98 83.8717 13.1267 84.485 13.42C85.1117 13.7 85.6383 14.0867 86.065 14.58C86.505 15.06 86.8383 15.6133 87.065 16.24C87.305 16.8533 87.425 17.4933 87.425 18.16C87.425 18.3067 87.4117 18.4733 87.385 18.66C87.3717 18.8333 87.3517 19 87.325 19.16H78.485V17.56H86.245L85.365 18.28C85.485 17.5867 85.4183 16.9667 85.165 16.42C84.9117 15.8733 84.5383 15.44 84.045 15.12C83.5517 14.8 82.9917 14.64 82.365 14.64C81.7383 14.64 81.165 14.8 80.645 15.12C80.125 15.44 79.7183 15.9 79.425 16.5C79.145 17.0867 79.0317 17.7867 79.085 18.6C79.0317 19.3867 79.1517 20.08 79.445 20.68C79.7517 21.2667 80.1783 21.7267 80.725 22.06C81.285 22.38 81.8917 22.54 82.545 22.54C83.265 22.54 83.8717 22.3733 84.365 22.04C84.8583 21.7067 85.2583 21.28 85.565 20.76L87.125 21.56C86.9117 22.0533 86.5783 22.5067 86.125 22.92C85.685 23.32 85.1583 23.64 84.545 23.88C83.945 24.12 83.2717 24.24 82.525 24.24ZM89.8502 24V8.86H91.7102V24H89.8502ZM94.8163 24V9.1H96.4563L105.016 21.14L104.276 21.22V9.1H106.256V24H104.616L96.0962 11.88L96.7763 11.8V24H94.8163ZM114.322 24.24C113.282 24.24 112.355 23.9933 111.542 23.5C110.729 23.0067 110.089 22.3333 109.622 21.48C109.155 20.6133 108.922 19.6467 108.922 18.58C108.922 17.5 109.149 16.54 109.602 15.7C110.069 14.86 110.695 14.2 111.482 13.72C112.282 13.2267 113.175 12.98 114.162 12.98C114.962 12.98 115.669 13.1267 116.282 13.42C116.909 13.7 117.435 14.0867 117.862 14.58C118.302 15.06 118.635 15.6133 118.862 16.24C119.102 16.8533 119.222 17.4933 119.222 18.16C119.222 18.3067 119.209 18.4733 119.182 18.66C119.169 18.8333 119.149 19 119.122 19.16H110.282V17.56H118.042L117.162 18.28C117.282 17.5867 117.215 16.9667 116.962 16.42C116.709 15.8733 116.335 15.44 115.842 15.12C115.349 14.8 114.789 14.64 114.162 14.64C113.535 14.64 112.962 14.8 112.442 15.12C111.922 15.44 111.515 15.9 111.222 16.5C110.942 17.0867 110.829 17.7867 110.882 18.6C110.829 19.3867 110.949 20.08 111.242 20.68C111.549 21.2667 111.975 21.7267 112.522 22.06C113.082 22.38 113.689 22.54 114.342 22.54C115.062 22.54 115.669 22.3733 116.162 22.04C116.655 21.7067 117.055 21.28 117.362 20.76L118.922 21.56C118.709 22.0533 118.375 22.5067 117.922 22.92C117.482 23.32 116.955 23.64 116.342 23.88C115.742 24.12 115.069 24.24 114.322 24.24ZM120.232 24L124.012 18.6L120.252 13.22H122.492L125.712 17.9H124.572L127.752 13.22H130.012L126.252 18.6L129.992 24H127.752L124.572 19.32H125.692L122.512 24H120.232ZM135.487 24.24C134.713 24.24 134.013 24.06 133.387 23.7C132.773 23.34 132.293 22.84 131.947 22.2C131.613 21.5467 131.447 20.8 131.447 19.96V13.22H133.307V19.76C133.307 20.2933 133.413 20.76 133.627 21.16C133.853 21.56 134.16 21.8733 134.547 22.1C134.947 22.3267 135.4 22.44 135.907 22.44C136.413 22.44 136.86 22.3267 137.247 22.1C137.647 21.8733 137.953 21.5467 138.167 21.12C138.393 20.6933 138.507 20.1867 138.507 19.6V13.22H140.387V24H138.567V21.9L138.867 22.08C138.613 22.76 138.18 23.2933 137.567 23.68C136.967 24.0533 136.273 24.24 135.487 24.24ZM147.128 24.24C146.048 24.24 145.108 23.9733 144.308 23.44C143.508 22.9067 142.941 22.1867 142.608 21.28L144.088 20.56C144.395 21.2 144.815 21.7067 145.348 22.08C145.881 22.4533 146.475 22.64 147.128 22.64C147.715 22.64 148.201 22.5 148.588 22.22C148.975 21.94 149.168 21.5733 149.168 21.12C149.168 20.8 149.075 20.5467 148.888 20.36C148.715 20.16 148.501 20.0067 148.248 19.9C147.995 19.78 147.761 19.6933 147.548 19.64L145.928 19.18C144.955 18.9 144.241 18.5 143.788 17.98C143.348 17.46 143.128 16.8533 143.128 16.16C143.128 15.52 143.288 14.9667 143.608 14.5C143.941 14.02 144.388 13.6467 144.948 13.38C145.521 13.1133 146.161 12.98 146.868 12.98C147.815 12.98 148.661 13.22 149.408 13.7C150.168 14.18 150.708 14.8533 151.028 15.72L149.508 16.42C149.268 15.86 148.908 15.42 148.428 15.1C147.948 14.7667 147.408 14.6 146.808 14.6C146.261 14.6 145.828 14.74 145.508 15.02C145.188 15.2867 145.028 15.6267 145.028 16.04C145.028 16.3467 145.108 16.6 145.268 16.8C145.428 16.9867 145.621 17.1333 145.848 17.24C146.075 17.3333 146.295 17.4133 146.508 17.48L148.268 18C149.148 18.2533 149.828 18.6467 150.308 19.18C150.801 19.7133 151.048 20.3533 151.048 21.1C151.048 21.7 150.881 22.24 150.548 22.72C150.215 23.2 149.755 23.5733 149.168 23.84C148.581 24.1067 147.901 24.24 147.128 24.24Z" fill="#008186"/>
</svg>
