<svg width="50" height="50" viewBox="0 0 50 50" fill="none" xmlns="http://www.w3.org/2000/svg">
<path d="M6.42623 42C5.28542 42 4.33364 41.6186 3.5709 40.8559C2.80816 40.0932 2.42597 39.1406 2.42432 37.9981V11.3319C2.42432 10.1911 2.80651 9.23934 3.5709 8.4766C4.33529 7.71386 5.28624 7.33167 6.42375 7.33002H43.0006C44.1398 7.33002 45.0907 7.71221 45.8535 8.4766C46.6162 9.24099 46.9984 10.1928 47 11.3319V38.0006C47 39.1397 46.6178 40.0915 45.8535 40.8559C45.0891 41.6203 44.1381 42.0017 43.0006 42H6.42623ZM24.7122 24.9523L44.5236 11.9981L43.7609 9.80645L24.7122 22.1886L5.66349 9.80645L4.90075 11.9981L24.7122 24.9523Z" fill="#FCF2DC"/>
</svg>
