<svg width="109" height="25" viewBox="0 0 109 25" fill="none" xmlns="http://www.w3.org/2000/svg">
<path d="M105.189 24.214C104.325 24.214 103.614 23.9569 103.057 23.4427C102.519 22.9087 102.25 22.2561 102.25 21.4847C102.25 20.6936 102.519 20.0311 103.057 19.4971C103.614 18.9631 104.325 18.6961 105.189 18.6961C106.035 18.6961 106.726 18.9631 107.264 19.4971C107.821 20.0311 108.1 20.6936 108.1 21.4847C108.1 22.2561 107.821 22.9087 107.264 23.4427C106.726 23.9569 106.035 24.214 105.189 24.214Z" fill="#FCF2DC"/>
<path d="M82.3459 15.6702C82.3459 13.9694 82.6534 12.4762 83.2681 11.1906C83.9022 9.9051 84.757 8.91622 85.8328 8.22401C86.9088 7.53179 88.1094 7.18571 89.4348 7.18571C90.5684 7.18571 91.5579 7.42302 92.4031 7.89768C93.2675 8.37235 93.9303 8.99534 94.3914 9.76664V7.42302H99.319V23.9767H94.3914V21.6331C93.9112 22.4044 93.2387 23.0274 92.3743 23.5021C91.5289 23.9767 90.5396 24.2141 89.4061 24.2141C88.0998 24.2141 86.9088 23.868 85.8328 23.1758C84.757 22.4638 83.9022 21.465 83.2681 20.1795C82.6534 18.8742 82.3459 17.3711 82.3459 15.6702ZM94.3914 15.6999C94.3914 14.4341 94.0456 13.4354 93.354 12.7036C92.6815 11.9718 91.8555 11.606 90.8758 11.606C89.8959 11.606 89.0603 11.9718 88.3687 12.7036C87.6962 13.4156 87.36 14.4045 87.36 15.6702C87.36 16.936 87.6962 17.9446 88.3687 18.6962C89.0603 19.4279 89.8959 19.7938 90.8758 19.7938C91.8555 19.7938 92.6815 19.4279 93.354 18.6962C94.0456 17.9644 94.3914 16.9656 94.3914 15.6999Z" fill="#FCF2DC"/>
<path d="M79.755 2.02346V23.9764H74.8271V2.02346H79.755Z" fill="#FCF2DC"/>
<path d="M68.8067 5.70232C67.942 5.70232 67.2312 5.44523 66.6743 4.93101C66.1363 4.39701 65.8674 3.74435 65.8674 2.97304C65.8674 2.18194 66.1363 1.52928 66.6743 1.01507C67.2312 0.481075 67.942 0.214081 68.8067 0.214081C69.6519 0.214081 70.3435 0.481075 70.8815 1.01507C71.4387 1.52928 71.7171 2.18194 71.7171 2.97304C71.7171 3.74435 71.4387 4.39701 70.8815 4.93101C70.3435 5.44523 69.6519 5.70232 68.8067 5.70232ZM71.2561 7.42296V23.9767H66.3285V7.42296H71.2561Z" fill="#FCF2DC"/>
<path d="M56.7087 7.24479C58.5914 7.24479 60.0899 7.87767 61.2042 9.14343C62.3375 10.3894 62.9042 12.11 62.9042 14.3054V23.9765H58.0054V14.9877C58.0054 13.8801 57.727 13.0198 57.1698 12.4067C56.6126 11.7936 55.8635 11.4871 54.9219 11.4871C53.9806 11.4871 53.2315 11.7936 52.6743 12.4067C52.1172 13.0198 51.8387 13.8801 51.8387 14.9877V23.9765H46.9109V7.42279H51.8387V9.6181C52.3381 8.88634 53.0106 8.31279 53.8558 7.89746C54.7012 7.46234 55.6521 7.24479 56.7087 7.24479Z" fill="#FCF2DC"/>
<path d="M26.373 15.6702C26.373 13.9694 26.6804 12.4762 27.2952 11.1906C27.9291 9.9051 28.7842 8.91622 29.8599 8.22401C30.9357 7.53179 32.1363 7.18571 33.462 7.18571C34.5955 7.18571 35.5848 7.42302 36.43 7.89768C37.2946 8.37235 37.9575 8.99534 38.4186 9.76664V7.42302H43.3461V23.9767H38.4186V21.6331C37.9381 22.4044 37.2659 23.0274 36.4012 23.5021C35.556 23.9767 34.5665 24.2141 33.4332 24.2141C32.1267 24.2141 30.9357 23.868 29.8599 23.1758C28.7842 22.4638 27.9291 21.465 27.2952 20.1795C26.6804 18.8742 26.373 17.3711 26.373 15.6702ZM38.4186 15.6999C38.4186 14.4341 38.0728 13.4354 37.3811 12.7036C36.7087 11.9718 35.8826 11.606 34.9027 11.606C33.9231 11.606 33.0874 11.9718 32.3958 12.7036C31.7234 13.4156 31.3872 14.4045 31.3872 15.6702C31.3872 16.936 31.7234 17.9446 32.3958 18.6962C33.0874 19.4279 33.9231 19.7938 34.9027 19.7938C35.8826 19.7938 36.7087 19.4279 37.3811 18.6962C38.0728 17.9644 38.4186 16.9656 38.4186 15.6999Z" fill="#FCF2DC"/>
<path d="M23.8092 3.15053V23.9762H18.8815V11.4867L14.3573 23.9762H10.3806L5.82755 11.4571V23.9762H0.899902V3.15053H6.72087L12.3978 17.5683L18.017 3.15053H23.8092Z" fill="#FCF2DC"/>
</svg>
