<svg width="36" height="46" viewBox="0 0 36 46" fill="none" xmlns="http://www.w3.org/2000/svg">
<path d="M18.6336 41.1794C19.4898 41.3416 21.3074 41.5258 22.0642 40.8642C22.3371 40.6252 22.449 40.2848 22.4056 39.8243C22.3295 39.0043 21.8365 38.3808 21.1506 38.2354C20.3439 38.0664 19.5103 38.5856 18.9249 39.6293C18.6755 40.0748 18.5914 40.6115 18.6336 41.1794Z" fill="#008186"/>
<path d="M29.4011 12.7119C28.9028 11.766 28.9306 10.8402 29.4761 10.235C29.5889 10.1095 29.7191 10.0067 29.8606 9.92548C28.5256 9.37837 26.9094 9.13768 26.324 9.0644C25.5947 10.257 25.0884 11.6368 24.8522 13.0172C24.8372 13.1047 24.8309 13.1903 24.8167 13.2775C26.7704 13.8587 28.5803 14.2527 30.3882 13.7448C29.9822 13.5113 29.6434 13.1726 29.4011 12.7119Z" fill="#008186"/>
<path d="M18.245 39.2487C18.6218 38.5758 19.0946 38.0733 19.6162 37.7669C16.2793 36.7877 8.36694 34.6595 4.26097 35.1863C2.20385 35.4489 1.05082 36.0107 0.848719 38.2232C0.632866 40.5879 2.86202 42.1828 5.30321 43.5548C9.18258 45.7339 17.118 45.9395 20.4369 45.9232C20.1987 45.7409 19.9653 45.5308 19.7395 45.2921C18.2328 43.6994 17.2618 41.0035 18.245 39.2487Z" fill="#008186"/>
<path d="M34.9686 5.63844C31.9748 1.03928 20.9682 -0.0829088 18.1194 0.00465072C14.4445 0.123427 11.1589 2.65599 9.94425 6.30651C8.30893 11.2213 8.33444 14.6674 8.36413 18.6579C8.38279 21.2053 8.40258 23.8395 7.98539 27.1193C7.49411 30.984 6.07341 33.2561 5.19077 34.3338C10.9034 34.1363 20.9487 37.3485 21.3992 37.4946C21.4067 37.497 21.4118 37.5029 21.4192 37.5058C22.3886 37.7622 23.0773 38.6269 23.1822 39.7512C23.2492 40.4699 23.0455 41.0416 22.577 41.4512C21.588 42.3161 19.7018 42.1471 18.7722 41.9955C19.0334 43.0035 19.6127 44.0237 20.3055 44.7561C20.8183 45.299 22.1666 46.4851 23.5944 45.7847C25.5393 44.833 25.6858 40.2552 25.4662 37.7009C25.2602 35.302 24.9352 32.9122 24.6211 30.6008C23.8091 24.6244 23.0417 18.9803 24.084 12.8855C24.784 8.79187 27.6984 4.71421 31.9169 4.77817C33.3973 4.80862 34.7387 5.75988 35.5042 7.32291C35.5857 7.48918 35.6512 7.65897 35.7153 7.82881C35.6488 7.04625 35.4076 6.31265 34.9686 5.63844Z" fill="#008186"/>
<path d="M30.1487 12.452C30.4593 12.4291 30.8323 12.3096 31.1658 12.1223C31.4601 11.9571 31.6222 11.6564 31.6001 11.3176C31.5781 10.9753 31.3752 10.6952 31.0585 10.5677C30.9279 10.5155 30.797 10.49 30.671 10.49C30.4323 10.49 30.213 10.5817 30.0551 10.7572C29.7379 11.109 29.7513 11.7039 30.0908 12.3488C30.1095 12.3842 30.1289 12.4185 30.1487 12.452Z" fill="#008186"/>
<path d="M31.9009 5.55778C29.8031 5.51286 28.0578 6.66465 26.81 8.34265C27.9001 8.50297 30.1127 8.93092 31.4326 9.89084L31.4356 9.89407C31.9766 10.1502 32.3386 10.6618 32.3782 11.2669C32.4197 11.9027 32.1015 12.4908 31.548 12.8021C31.3154 12.9327 31.0687 13.0366 30.824 13.1101C31.0364 13.222 31.2778 13.2886 31.5472 13.3092C32.6089 13.3986 33.9785 12.7165 34.679 11.7732C35.4498 10.7367 35.5 9.08576 34.8042 7.66587C34.1693 6.37009 33.084 5.58176 31.9009 5.55778Z" fill="#008186"/>
</svg>
