<svg width="81" height="25" viewBox="0 0 81 25" fill="none" xmlns="http://www.w3.org/2000/svg">
<path d="M16.3664 1.73816C7.82456 1.73816 0.899902 8.60215 0.899902 17.0692V24.4282C9.44208 24.4282 16.3664 17.5641 16.3664 9.09708V1.73816Z" fill="#FCF2DC"/>
<path d="M39.1339 1.97319V17.9888H35.8933V7.57173L31.5646 17.9888H29.1112L24.7595 7.57173V17.9888H21.5186V1.97319H25.1991L30.3379 13.8815L35.4767 1.97319H39.1339Z" fill="#FCF2DC"/>
<path d="M43.0553 3.76294C42.4844 3.76294 42.0057 3.58703 41.62 3.23521C41.2497 2.86811 41.0645 2.41684 41.0645 1.88149C41.0645 1.3461 41.2497 0.902494 41.62 0.550675C42.0057 0.183571 42.4844 0 43.0553 0C43.6262 0 44.0968 0.183571 44.4672 0.550675C44.8529 0.902494 45.0462 1.3461 45.0462 1.88149C45.0462 2.41684 44.8529 2.86811 44.4672 3.23521C44.0968 3.58703 43.6262 3.76294 43.0553 3.76294ZM44.6524 5.27729V17.9888H41.4119V5.27729H44.6524Z" fill="#FCF2DC"/>
<path d="M54.035 5.0937C55.5629 5.0937 56.7972 5.57554 57.7389 6.53925C58.6802 7.4876 59.1508 8.81841 59.1508 10.5316V17.9888H55.9099V10.9676C55.9099 9.95799 55.6555 9.18552 55.1462 8.65017C54.6369 8.09949 53.9424 7.82413 53.0627 7.82413C52.1677 7.82413 51.458 8.09949 50.9334 8.65017C50.4241 9.18552 50.1696 9.95799 50.1696 10.9676V17.9888H46.9287V5.27727H50.1696V6.86046C50.6016 6.30978 51.1496 5.8815 51.813 5.57554C52.4918 5.25433 53.2326 5.0937 54.035 5.0937Z" fill="#FCF2DC"/>
<path d="M65.0792 7.91591V14.0651C65.0792 14.4934 65.1795 14.8069 65.3804 15.0058C65.5962 15.1894 65.9513 15.2812 66.4453 15.2812H67.9498V17.9888H65.9126C63.1814 17.9888 61.8154 16.6731 61.8154 14.0421V7.91591H59.4106V5.27726H61.8154V2.13384H65.0792V5.27726V7.91591Z" fill="#FCF2DC"/>
<path d="M80.0998 5.2773L72.1602 24H68.7111L71.4886 17.6674L66.3499 5.2773H69.9841L73.2943 14.1569L76.6508 5.2773H80.0998Z" fill="#FCF2DC"/>
</svg>
