<svg width="96" height="96" viewBox="0 0 96 96" fill="none" xmlns="http://www.w3.org/2000/svg">
<path d="M58.1205 46.9651C55.2182 46.9651 53.6361 50.3909 53.6361 54.719C53.5814 59.0979 55.2767 62.4221 58.1205 62.4221C61.1791 62.4221 62.5501 59.1487 62.5501 54.6135C62.5501 50.4494 61.3393 46.9651 58.1205 46.9651Z" fill="#008186"/>
<path d="M40.1834 40.4221C40.1834 36.2541 38.9725 32.7698 35.7537 32.7698C32.8553 32.7698 31.324 36.1995 31.324 40.5276C31.2146 44.9065 32.8552 48.2307 35.7537 48.2307C38.8123 48.2346 40.1834 44.9612 40.1834 40.4221Z" fill="#008186"/>
<path d="M95.1755 55.7852C95.1989 55.6289 95.1442 55.4727 95.0388 55.3594L83.5548 43.8044L91.3282 29.4724C91.4024 29.3357 91.4063 29.1677 91.3438 29.0193C91.2774 28.8786 91.1485 28.7693 90.9922 28.7341L75.0782 25.2302L73.8555 8.9802C73.8438 8.82004 73.7579 8.67942 73.6251 8.59348C73.4922 8.50754 73.3243 8.48801 73.1758 8.5427L57.8948 14.1872L48.0823 1.1792C47.8909 0.925292 47.4651 0.925292 47.2776 1.1792L37.4651 14.1872L22.1921 8.5427C22.0398 8.48801 21.8757 8.50364 21.7429 8.59348C21.6101 8.67942 21.5242 8.82004 21.5125 8.9802L20.2898 25.2222L4.38376 28.73C4.22751 28.7652 4.0986 28.8667 4.0322 29.0152C3.9697 29.1597 3.9736 29.3277 4.05173 29.4683L11.8173 43.8003L0.325328 55.3553C0.215948 55.4686 0.161268 55.6248 0.188608 55.7811C0.212046 55.9412 0.305798 56.074 0.446418 56.1522L14.7274 64.0116L11.3133 79.9416C11.2782 80.0978 11.3211 80.2619 11.4266 80.3791C11.5282 80.5001 11.7039 80.5861 11.8407 80.5509L28.0947 79.4415L33.8291 94.6875C33.8837 94.8321 34.0087 94.9492 34.1611 94.9961C34.208 95.0117 34.2548 95.0156 34.3017 95.0156C34.4072 95.0156 34.5126 94.9805 34.6025 94.9141L47.6805 85.1993L60.7625 94.9181C60.8875 95.0118 61.0515 95.0392 61.2078 94.9962C61.3601 94.9493 61.4812 94.8361 61.5398 94.6876L67.2742 79.4416L83.5282 80.551C83.6571 80.5823 83.8407 80.5002 83.9423 80.3791C84.0478 80.258 84.0868 80.0979 84.0556 79.9416L80.6454 64.0116L94.9184 56.1522C95.059 56.078 95.1521 55.9414 95.1755 55.7852ZM27.6325 40.6872C27.6325 33.8278 31.3747 29.9762 35.9098 29.9762C40.7106 29.9762 43.8786 33.6715 43.8786 40.2102C43.8786 47.4407 40.0856 51.0222 35.6442 51.0222C31.3747 51.0261 27.6794 47.6013 27.6325 40.6872ZM37.5387 65.4252C36.5543 65.4252 35.9371 64.3627 36.4215 63.5072L55.1125 30.6282C55.339 30.2258 55.7687 29.9797 56.2297 29.9797C57.2141 29.9797 57.8313 31.0422 57.3469 31.8977L38.6519 64.7767C38.4253 65.1752 37.9996 65.4252 37.5387 65.4252ZM58.0117 65.2181C53.7383 65.2181 50.0508 61.7884 49.9922 54.9291C49.9922 48.0189 53.7383 44.1671 58.2774 44.1671C63.0821 44.1671 66.1876 47.8585 66.1876 54.4011C66.1876 61.6277 62.3907 65.2171 58.0118 65.2171L58.0117 65.2181Z" fill="#008186"/>
</svg>
