<svg width="95" height="95" viewBox="0 0 95 95" fill="none" xmlns="http://www.w3.org/2000/svg">
<path d="M57.9395 46.5521C55.0372 46.5521 53.4551 49.9779 53.4551 54.306C53.4005 58.6849 55.0957 62.0091 57.9395 62.0091C60.9981 62.0091 62.3692 58.7357 62.3692 54.2005C62.3692 50.0364 61.1583 46.5521 57.9395 46.5521Z" fill="#D37643"/>
<path d="M40.0025 40.0091C40.0025 35.8411 38.7916 32.3568 35.5728 32.3568C32.6744 32.3568 31.1431 35.7865 31.1431 40.1146C31.0337 44.4935 32.6743 47.8177 35.5728 47.8177C38.6314 47.8216 40.0025 44.5482 40.0025 40.0091Z" fill="#D37643"/>
<path d="M94.9946 55.3722C95.018 55.216 94.9633 55.0597 94.8579 54.9464L83.3739 43.3914L91.1473 29.0594C91.2215 28.9227 91.2254 28.7547 91.1629 28.6063C91.0965 28.4657 90.9676 28.3563 90.8113 28.3211L74.8973 24.8172L73.6746 8.56724C73.6629 8.40708 73.577 8.26646 73.4441 8.18052C73.3113 8.09458 73.1434 8.07505 72.9949 8.12974L57.7139 13.7742L47.9014 0.766238C47.71 0.512328 47.2842 0.512328 47.0967 0.766238L37.2842 13.7742L22.0112 8.12974C21.8589 8.07505 21.6948 8.09067 21.562 8.18052C21.4292 8.26646 21.3433 8.40708 21.3315 8.56724L20.1088 24.8092L4.20285 28.317C4.0466 28.3522 3.91769 28.4538 3.85129 28.6022C3.78879 28.7467 3.79269 28.9147 3.87082 29.0553L11.6364 43.3873L0.144419 54.9423C0.0350394 55.0556 -0.0196405 55.2118 0.00769949 55.3681C0.0311375 55.5283 0.12489 55.6611 0.26551 55.7392L14.5465 63.5986L11.1324 79.5286C11.0973 79.6848 11.1402 79.8489 11.2457 79.9661C11.3472 80.0872 11.523 80.1731 11.6597 80.138L27.9137 79.0286L33.6481 94.2746C33.7028 94.4191 33.8278 94.5363 33.9802 94.5832C34.0271 94.5988 34.0739 94.6027 34.1208 94.6027C34.2263 94.6027 34.3317 94.5675 34.4216 94.5011L47.4996 84.7863L60.5816 94.5051C60.7066 94.5989 60.8706 94.6262 61.0269 94.5833C61.1792 94.5364 61.3003 94.4231 61.3589 94.2747L67.0933 79.0287L83.3473 80.1381C83.4762 80.1693 83.6598 80.0873 83.7614 79.9662C83.8669 79.8451 83.9059 79.6849 83.8747 79.5287L80.4645 63.5987L94.7375 55.7393C94.8781 55.6651 94.9711 55.5285 94.9946 55.3722ZM27.4516 40.2742C27.4516 33.4148 31.1938 29.5632 35.7289 29.5632C40.5297 29.5632 43.6977 33.2585 43.6977 39.7972C43.6977 47.0277 39.9047 50.6092 35.4633 50.6092C31.1938 50.6131 27.4985 47.1883 27.4516 40.2742ZM37.3578 65.0122C36.3734 65.0122 35.7562 63.9497 36.2406 63.0942L54.9316 30.2152C55.1581 29.8129 55.5878 29.5668 56.0488 29.5668C57.0332 29.5668 57.6504 30.6293 57.166 31.4848L38.471 64.3638C38.2444 64.7622 37.8187 65.0122 37.3578 65.0122ZM57.8308 64.8052C53.5574 64.8052 49.8699 61.3755 49.8113 54.5162C49.8113 47.606 53.5574 43.7542 58.0965 43.7542C62.9012 43.7542 66.0067 47.4456 66.0067 53.9882C66.0067 61.2148 62.2098 64.8042 57.8309 64.8042L57.8308 64.8052Z" fill="#D37643"/>
</svg>
