<svg width="36" height="48" viewBox="0 0 36 48" fill="none" xmlns="http://www.w3.org/2000/svg">
<path d="M9.6823 1.02529C10.9528 0.642221 12.3162 0.705861 13.5455 1.20561C14.7748 1.70536 15.7959 2.61108 16.4387 3.77198L16.6536 4.2046L18.5757 8.47563C19.1579 9.77222 19.3466 11.2112 19.1185 12.6141C18.8903 14.017 18.2554 15.322 17.2923 16.3673L16.9062 16.7506L13.8778 19.5756C13.332 20.0925 13.7414 22.093 15.7157 25.5133C17.4927 28.591 18.9386 30.0282 19.65 30.1066H19.7748L19.9287 30.0776L25.8808 28.2571C26.6808 28.0117 27.5345 28.002 28.3398 28.2291C29.1451 28.4562 29.8679 28.9104 30.4219 29.5375L30.6861 29.8714L34.6261 35.33C35.3983 36.3999 35.7831 37.7008 35.7171 39.0187C35.6512 40.3365 35.1384 41.5925 34.2632 42.58L33.909 42.9458L32.3353 44.4382C30.9221 45.7765 29.1544 46.6808 27.2423 47.0437C25.3301 47.4065 23.354 47.2127 21.5488 46.4851C15.9306 44.2204 10.8263 39.0464 6.18941 31.0154C1.54383 22.964 -0.386982 15.9463 0.475353 9.93608C0.736299 8.11927 1.48443 6.40706 2.64029 4.98127C3.79615 3.55549 5.31659 2.46937 7.04013 1.83826L7.6005 1.65244L9.6823 1.02529Z" fill="#FCF2DC"/>
</svg>
