<svg width="47" height="48" viewBox="0 0 47 48" fill="none" xmlns="http://www.w3.org/2000/svg">
<path d="M16.0502 37.8224H31.283V10.1776H16.0502V37.8224ZM22.8203 17.2299C22.8203 16.7627 23.1994 16.3836 23.6666 16.3836C24.1338 16.3836 24.5129 16.7627 24.5129 17.2299V30.7701C24.5129 31.2374 24.1338 31.6164 23.6666 31.6164C23.1994 31.6164 22.8203 31.2374 22.8203 30.7701V17.2299ZM31.283 2.55445V8.48509H16.0502V2.55445C16.0502 1.47016 16.9361 0.586426 18.0182 0.586426H29.3131C30.3974 0.586426 31.283 1.47236 31.283 2.55445ZM16.0502 39.5149H31.283V45.4456C31.283 46.5299 30.3971 47.4136 29.315 47.4136H18.0185C16.9342 47.4136 16.0504 46.5277 16.0504 45.4456L16.0502 39.5149ZM0.817383 37.8224H13.7935V15.8194H0.817383V37.8224ZM6.45917 22.8716C6.45917 22.4044 6.83823 22.0254 7.30544 22.0254C7.77264 22.0254 8.1517 22.4044 8.1517 22.8716V30.7701C8.1517 31.2374 7.77264 31.6164 7.30544 31.6164C6.83823 31.6164 6.45917 31.2374 6.45917 30.7701V22.8716ZM13.7935 8.19624V14.1269H0.817383V8.19624C0.817383 7.11194 1.70331 6.22821 2.78541 6.22821H11.8235C12.9078 6.22821 13.7935 7.11414 13.7935 8.19624ZM0.817383 39.5149H13.7935V45.4456C13.7935 46.5299 12.9076 47.4136 11.8255 47.4136H2.78563C1.70134 47.4136 0.817608 46.5277 0.817608 45.4456L0.817383 39.5149ZM33.5397 37.8224H46.5158V18.0761H33.5397V37.8224ZM39.1815 25.1284C39.1815 24.6612 39.5606 24.2821 40.0278 24.2821C40.495 24.2821 40.8741 24.6612 40.8741 25.1284V30.7701C40.8741 31.2374 40.495 31.6164 40.0278 31.6164C39.5606 31.6164 39.1815 31.2374 39.1815 30.7701V25.1284ZM46.5158 10.4529V16.3836H33.5397V10.4529C33.5397 9.36865 34.4257 8.48493 35.5078 8.48493H44.5459C45.6302 8.48493 46.5158 9.37086 46.5158 10.4529ZM33.5397 39.5149H46.5158V45.4456C46.5158 46.5299 45.6299 47.4136 44.5478 47.4136H35.508C34.4237 47.4136 33.54 46.5277 33.54 45.4456L33.5397 39.5149Z" fill="#FCF2DC"/>
</svg>
