<svg width="107" height="25" viewBox="0 0 107 25" fill="none" xmlns="http://www.w3.org/2000/svg">
<path d="M46.7536 3.79785C47.1209 4.18378 47.6813 4.37676 48.4344 4.37676C49.1875 4.37676 49.7387 4.18378 50.0877 3.79785C50.437 3.39353 50.6113 2.89732 50.6113 2.30922C50.6113 1.68433 50.437 1.17895 50.0877 0.79299C49.7387 0.407061 49.1875 0.214081 48.4344 0.214081C47.6813 0.214081 47.1209 0.407061 46.7536 0.79299C46.4043 1.17895 46.23 1.68433 46.23 2.30922C46.23 2.89732 46.4043 3.39353 46.7536 3.79785Z" fill="#FCF2DC"/>
<path d="M29.2607 6.16867L33.9454 21.1378H40.0902L44.1409 6.16867H40.4487L37.4006 17.9951H36.7499L33.2015 6.16867H29.2607Z" fill="#FCF2DC"/>
<path d="M59.3245 21.6064C57.2671 21.6064 55.6503 21.1745 54.4747 20.3108C53.3175 19.4286 52.7112 18.2154 52.656 16.6719H56.1004C56.1555 17.1865 56.4405 17.6552 56.9546 18.0778C57.469 18.5005 58.2776 18.7117 59.3796 18.7117C60.2982 18.7117 61.0237 18.5465 61.5565 18.2154C62.1077 17.8847 62.3831 17.4345 62.3831 16.8646C62.3831 16.3686 62.172 15.9734 61.7495 15.6794C61.3454 15.3853 60.6471 15.1924 59.655 15.1005L58.3324 14.9626C56.6608 14.7788 55.3749 14.301 54.4747 13.5291C53.5746 12.7572 53.1245 11.7281 53.1245 10.4416C53.1245 9.41239 53.3815 8.5486 53.8959 7.85025C54.4104 7.15186 55.1178 6.62809 56.018 6.27891C56.9362 5.91134 57.9834 5.72756 59.1593 5.72756C60.9961 5.72756 62.4842 6.13188 63.6234 6.94052C64.7622 7.74916 65.3593 8.93457 65.4145 10.4967H61.9698C61.933 9.98213 61.676 9.54103 61.1983 9.17346C60.7207 8.80592 60.0319 8.62214 59.1318 8.62214C58.3232 8.62214 57.6988 8.77834 57.2579 9.09076C56.817 9.40319 56.5964 9.80751 56.5964 10.3037C56.5964 10.7816 56.7711 11.1491 57.12 11.4064C57.4874 11.6637 58.0753 11.8383 58.8836 11.9302L60.2062 12.068C61.9698 12.2518 63.3476 12.7388 64.3397 13.5291C65.3501 14.3194 65.8554 15.3853 65.8554 16.727C65.8554 17.7195 65.5796 18.5833 65.0287 19.3183C64.4959 20.0349 63.7425 20.5955 62.7692 20.9998C61.7955 21.4041 60.6471 21.6064 59.3245 21.6064Z" fill="#FCF2DC"/>
<path d="M68.0824 3.79785C68.45 4.18378 69.0101 4.37676 69.7635 4.37676C70.5166 4.37676 71.0678 4.18378 71.4168 3.79785C71.7657 3.39353 71.9404 2.89732 71.9404 2.30922C71.9404 1.68433 71.7657 1.17895 71.4168 0.79299C71.0678 0.407061 70.5166 0.214081 69.7635 0.214081C69.0101 0.214081 68.45 0.407061 68.0824 0.79299C67.7334 1.17895 67.5591 1.68433 67.5591 2.30922C67.5591 2.89732 67.7334 3.39353 68.0824 3.79785Z" fill="#FCF2DC"/>
<path fill-rule="evenodd" clip-rule="evenodd" d="M82.4168 21.6616C81.0942 21.6616 79.9278 21.4501 78.9173 21.0274C77.9068 20.6047 77.0526 20.0349 76.3544 19.3183C75.6564 18.5833 75.1236 17.756 74.7563 16.8371C74.4073 15.9183 74.2327 14.9627 74.2327 13.9702V13.3913C74.2327 12.3621 74.4165 11.3881 74.7839 10.4692C75.1696 9.5319 75.7116 8.70487 76.4095 7.98812C77.1262 7.25298 77.9896 6.68326 79 6.27894C80.0102 5.85623 81.1493 5.64489 82.4168 5.64489C83.6843 5.64489 84.8235 5.85623 85.8336 6.27894C86.8441 6.68326 87.6983 7.25298 88.3965 7.98812C89.1128 8.70487 89.6548 9.5319 90.0222 10.4692C90.3895 11.3881 90.5734 12.3621 90.5734 13.3913V13.9702C90.5734 14.9627 90.3895 15.9183 90.0222 16.8371C89.6732 17.756 89.1496 18.5833 88.4517 19.3183C87.7534 20.0349 86.8992 20.6047 85.8888 21.0274C84.8786 21.4501 83.7211 21.6616 82.4168 21.6616ZM82.4168 18.381C83.3537 18.381 84.1436 18.1787 84.7867 17.7744C85.4295 17.3517 85.9163 16.7914 86.2472 16.0929C86.5778 15.3762 86.743 14.5675 86.743 13.667C86.743 12.7481 86.5686 11.9394 86.2197 11.2411C85.8888 10.5243 85.3927 9.96377 84.7316 9.55945C84.0884 9.13674 83.317 8.9254 82.4168 8.9254C81.5167 8.9254 80.736 9.13674 80.0745 9.55945C79.4317 9.96377 78.9357 10.5243 78.5864 11.2411C78.2374 11.9394 78.0631 12.7481 78.0631 13.667C78.0631 14.5675 78.2282 15.3762 78.5591 16.0929C78.9081 16.7914 79.4041 17.3517 80.0469 17.7744C80.69 18.1787 81.4799 18.381 82.4168 18.381Z" fill="#FCF2DC"/>
<path d="M95.9113 8.78758C95.7796 9.11689 95.6693 9.47352 95.5807 9.85748V6.16868H92.5493V21.1378H96.3797V12.3438C96.3797 11.3697 96.6644 10.5978 97.2339 10.0281C97.8219 9.44002 98.5842 9.14595 99.5211 9.14595C100.44 9.14595 101.156 9.43083 101.67 10.0005C102.203 10.5703 102.469 11.3146 102.469 12.2335V21.1378H106.3V12.5643C106.3 10.2854 105.841 8.57624 104.922 7.43678C104.004 6.27896 102.653 5.70002 100.871 5.70002H100.706C99.5119 5.70002 98.5106 5.95734 97.7024 6.47191C96.9126 6.98651 96.3154 7.7584 95.9113 8.78758Z" fill="#FCF2DC"/>
<path d="M47.0292 9.0357V21.1378H50.8596V6.16867H44.9351V9.0357H47.0292Z" fill="#FCF2DC"/>
<path d="M68.3581 9.0357V21.1378H72.1882V6.16867H66.2637V9.0357H68.3581Z" fill="#FCF2DC"/>
<path fill-rule="evenodd" clip-rule="evenodd" d="M12.695 24.2141C19.3195 24.2141 24.6899 18.8414 24.6899 12.2141C24.6899 5.58667 19.3195 0.214081 12.695 0.214081C6.0703 0.214081 0.699951 5.58667 0.699951 12.2141C0.699951 18.8414 6.0703 24.2141 12.695 24.2141ZM21.5226 10.9689C20.4042 12.2774 18.8287 13.0922 17.0832 13.0922C13.69 13.0922 10.9394 10.0128 10.9394 6.21412C10.9394 5.25845 11.1134 4.34829 11.4281 3.52122C7.17623 4.16726 3.91803 7.84004 3.91803 12.2741C3.91803 13.5678 4.1954 14.7967 4.6939 15.9046C5.19959 15.4339 5.91026 15.1411 6.69739 15.1411C8.23235 15.1411 9.47672 16.2549 9.47672 17.6289C9.47672 18.5514 8.91565 19.3567 8.08226 19.7863C9.44113 20.6366 11.0472 21.1279 12.768 21.1279C17.6558 21.1279 21.6182 17.1638 21.6182 12.2741C21.6182 11.8307 21.5853 11.3948 21.5226 10.9689Z" fill="#FCF2DC"/>
<mask id="mask0_124_286" style="mask-type:luminance" maskUnits="userSpaceOnUse" x="0" y="0" width="25" height="25">
<path fill-rule="evenodd" clip-rule="evenodd" d="M12.695 24.2141C19.3195 24.2141 24.6899 18.8414 24.6899 12.2141C24.6899 5.58667 19.3195 0.214081 12.695 0.214081C6.0703 0.214081 0.699951 5.58667 0.699951 12.2141C0.699951 18.8414 6.0703 24.2141 12.695 24.2141ZM21.5226 10.9689C20.4042 12.2774 18.8287 13.0922 17.0832 13.0922C13.69 13.0922 10.9394 10.0128 10.9394 6.21412C10.9394 5.25845 11.1134 4.34829 11.4281 3.52122C7.17623 4.16726 3.91803 7.84004 3.91803 12.2741C3.91803 13.5678 4.1954 14.7967 4.6939 15.9046C5.19959 15.4339 5.91026 15.1411 6.69739 15.1411C8.23235 15.1411 9.47672 16.2549 9.47672 17.6289C9.47672 18.5514 8.91565 19.3567 8.08226 19.7863C9.44113 20.6366 11.0472 21.1279 12.768 21.1279C17.6558 21.1279 21.6182 17.1638 21.6182 12.2741C21.6182 11.8307 21.5853 11.3948 21.5226 10.9689Z" fill="#C6C7C7"/>
</mask>
<g mask="url(#mask0_124_286)">
<path d="M21.5226 10.9689L22.3906 10.8405L22.1089 8.93189L20.8556 10.3982L21.5226 10.9689ZM11.4281 3.52123L12.2484 3.83356L12.7834 2.42719L11.2963 2.65315L11.4281 3.52123ZM4.69388 15.9046L3.89356 16.265L4.39583 17.3813L5.29173 16.5475L4.69388 15.9046ZM8.08225 19.7863L7.68026 19.0056L6.30895 19.7127L7.6169 20.5308L8.08225 19.7863ZM23.8124 12.2141C23.8124 18.3567 18.835 23.3362 12.695 23.3362V25.0923C19.8044 25.0923 25.5678 19.3265 25.5678 12.2141H23.8124ZM12.695 1.09213C18.835 1.09213 23.8124 6.07163 23.8124 12.2141H25.5678C25.5678 5.10177 19.8044 -0.663946 12.695 -0.663946V1.09213ZM1.57764 12.2141C1.57764 6.07163 6.55503 1.09213 12.695 1.09213V-0.663946C5.58557 -0.663946 -0.177734 5.10177 -0.177734 12.2141H1.57764ZM12.695 23.3362C6.55503 23.3362 1.57764 18.3567 1.57764 12.2141H-0.177734C-0.177734 19.3265 5.58557 25.0923 12.695 25.0923V23.3362ZM17.0832 13.9703C19.1137 13.9703 20.9238 13.0204 22.1897 11.5396L20.8556 10.3982C19.8845 11.5343 18.5438 12.2142 17.0832 12.2142V13.9703ZM10.0616 6.21413C10.0616 10.4023 13.1151 13.9703 17.0832 13.9703V12.2142C14.265 12.2142 11.817 9.62335 11.817 6.21413H10.0616ZM10.6078 3.20891C10.2553 4.13551 10.0616 5.15152 10.0616 6.21413H11.817C11.817 5.36539 11.9716 4.56105 12.2484 3.83356L10.6078 3.20891ZM4.79572 12.2741C4.79572 8.28059 7.73042 4.97118 11.5599 4.38935L11.2963 2.65315C6.62197 3.36339 3.04035 7.3995 3.04035 12.2741H4.79572ZM5.49421 15.5442C5.04571 14.5474 4.79572 13.4412 4.79572 12.2741H3.04035C3.04035 13.6945 3.34509 15.0461 3.89356 16.265L5.49421 15.5442ZM6.69738 14.263C5.69302 14.263 4.76749 14.6368 4.09604 15.2617L5.29173 16.5475C5.63166 16.2311 6.12751 16.0191 6.69738 16.0191V14.263ZM10.3544 17.6289C10.3544 15.6807 8.62274 14.263 6.69738 14.263V16.0191C7.84197 16.0191 8.59903 16.8292 8.59903 17.6289H10.3544ZM8.4842 20.567C9.56452 20.01 10.3544 18.9281 10.3544 17.6289H8.59903C8.59903 18.1747 8.26674 18.7035 7.68026 19.0056L8.4842 20.567ZM12.768 20.2497C11.2165 20.2497 9.77101 19.8073 8.54759 19.0418L7.6169 20.5308C9.11122 21.4655 10.8779 22.0058 12.768 22.0058V20.2497ZM20.7403 12.2741C20.7403 16.6788 17.1709 20.2497 12.768 20.2497V22.0058C18.1403 22.0058 22.4957 17.6489 22.4957 12.2741H20.7403ZM20.6543 11.0972C20.7108 11.4808 20.7403 11.8738 20.7403 12.2741H22.4957C22.4957 11.7875 22.4599 11.3088 22.3906 10.8405L20.6543 11.0972Z" fill="#FCF2DC"/>
</g>
</svg>
